# xmcd
#
# Track frame offsets: 
#        150
#        11858
#        24906
#        35663
#        49332
#        61848
#        76288
#        87922
#
# Disc length: 1307 seconds
#
# Revision: 0
# Processed by: cddbd v1.5.2PL0 Copyright (c) Steve Scherf et al.
# Submitted via: ExactAudioCopy v0.99pb4
#
DISCID=5c051908
DTITLE=Tennessee Ernie Ford - Greatest Hits
DYEAR=1995
DGENRE=Classic Country
TTITLE0=Sixteen Tons
TTITLE1=The Ballad of Davy Crocett
TTITLE2=In the Middle of an Island
TTITLE3=Mule Train
TTITLE4=That's All
TTITLE5=The Cry of the Wild Goose
TTITLE6=Shot-Gun Boogie
TTITLE7=Ivy League
EXTD=
EXTT0=
EXTT1=
EXTT2=
EXTT3=
EXTT4=
EXTT5=
EXTT6=
EXTT7=
PLAYORDER=
